<?xml version="1.0" standalone="no"?>
<!DOCTYPE svg PUBLIC "-//W3C//DTD SVG 20010904//EN"
 "http://www.w3.org/TR/2001/REC-SVG-20010904/DTD/svg10.dtd">
<svg version="1.0" xmlns="http://www.w3.org/2000/svg"
 width="900.000000pt" height="900.000000pt" viewBox="0 0 900.000000 900.000000"
 preserveAspectRatio="xMidYMid meet">
<metadata>
Created by potrace 1.10, written by Peter Selinger 2001-2011
</metadata>
<g transform="translate(0.000000,900.000000) scale(0.100000,-0.100000)"
fill="#b97979" stroke="none">
<path d="M4237 8981 c-3 -11 -17 -21 -39 -25 -19 -3 -49 -17 -68 -31 -39 -29
-125 -49 -174 -39 -28 5 -37 3 -42 -10 -9 -23 -102 -23 -111 0 -4 10 0 20 10
26 20 11 23 54 5 61 -7 2 -20 2 -29 0 -21 -6 -42 -50 -29 -58 6 -4 10 -10 10
-16 0 -14 -28 -11 -33 4 -2 7 -48 -33 -107 -93 -101 -104 -103 -105 -118 -82
-27 41 -72 24 -72 -27 0 -10 -9 -30 -20 -44 -11 -14 -20 -32 -20 -40 0 -23
-17 -30 -40 -17 -17 9 -24 7 -40 -12 -10 -13 -16 -25 -14 -28 3 -2 9 2 13 9 5
7 14 10 20 7 17 -11 13 -43 -5 -50 -13 -5 -15 -15 -11 -43 4 -20 1 -45 -5 -57
-12 -21 -12 -21 -18 4 -8 33 -46 36 -43 3 2 -18 -2 -22 -25 -22 -15 0 -58 -6
-96 -12 -48 -9 -71 -10 -73 -2 -2 5 -10 18 -17 28 -13 18 -15 17 -31 -15 -10
-19 -19 -53 -20 -76 -2 -23 -6 -47 -10 -54 -9 -15 15 -42 32 -36 21 8 15 -3
-14 -28 -23 -20 -28 -33 -29 -75 0 -29 -5 -56 -10 -61 -5 -5 -36 -16 -68 -24
-33 -9 -62 -20 -65 -25 -3 -5 -27 -12 -53 -16 -52 -8 -78 -35 -78 -79 0 -36
20 -75 42 -82 22 -7 17 -36 -12 -69 -30 -34 -34 -62 -11 -77 25 -15 27 -28 6
-28 -20 0 -36 -41 -23 -57 7 -9 7 -17 -1 -27 -10 -12 -19 -56 -20 -107 -1 -9
-15 -20 -33 -25 -17 -5 -33 -15 -34 -22 -1 -7 0 -8 3 -2 2 5 13 10 24 10 24 0
25 -28 2 -45 -14 -10 -15 -16 -5 -28 7 -8 13 -49 15 -91 2 -72 0 -78 -23 -96
l-25 -20 33 0 c36 0 38 -6 17 -46 -8 -16 -15 -40 -15 -54 0 -14 -7 -33 -14
-43 -15 -19 -11 -94 5 -111 15 -16 10 -35 -16 -74 -14 -20 -25 -47 -25 -59 0
-12 -4 -24 -9 -27 -10 -7 -21 -94 -14 -113 3 -7 10 -13 17 -13 20 -1 56 -38
56 -59 0 -24 3 -25 30 -9 15 10 22 10 31 1 10 -10 6 -15 -15 -23 -23 -8 -27
-14 -21 -33 4 -12 7 -31 8 -42 3 -132 19 -269 32 -288 8 -12 15 -31 15 -43 0
-12 6 -35 14 -51 8 -15 22 -47 32 -70 19 -48 36 -53 86 -27 30 15 32 15 45 -2
13 -17 15 -17 26 -3 17 23 73 50 91 43 8 -3 16 -15 18 -27 2 -15 13 -23 37
-28 18 -4 36 -12 40 -17 3 -6 19 -14 34 -17 28 -8 36 -32 15 -53 -8 -8 -8 -15
0 -25 15 -17 4 -82 -20 -125 -23 -42 -23 -43 11 -36 33 7 49 -10 31 -31 -10
-13 -8 -15 18 -15 25 0 32 6 41 32 6 17 19 40 28 50 12 14 13 21 4 32 -9 11
-8 15 5 20 23 9 32 0 44 -45 9 -33 15 -40 33 -37 16 2 21 9 20 26 -2 12 2 22
7 22 6 0 10 13 10 30 0 19 7 33 20 40 11 6 20 15 20 20 0 6 -9 10 -20 10 -34
0 -23 28 13 32 28 3 34 9 47 45 13 39 13 44 -3 60 -16 16 -18 16 -32 -2 -12
-17 -14 -17 -15 -4 0 9 7 22 16 30 21 17 54 83 54 108 0 11 8 24 17 30 15 8
16 13 4 33 -7 13 -11 37 -9 54 3 25 -1 29 -24 32 -33 4 -36 22 -7 48 14 13 18
25 14 42 -5 20 -3 23 15 17 27 -9 60 20 60 51 0 13 -8 39 -17 59 l-17 35 49
71 c38 56 49 81 53 122 2 29 8 57 13 63 5 6 6 24 3 41 -8 41 35 93 78 93 24 0
28 3 24 18 -4 12 8 31 40 62 44 44 69 85 76 125 2 11 10 20 18 20 11 0 14 -10
12 -37 -4 -45 11 -50 40 -13 11 14 30 25 44 25 18 0 29 9 41 34 18 39 12 66
-14 66 -27 0 -57 70 -49 112 7 35 41 80 68 90 21 8 31 48 12 48 -17 0 -18 14
-2 40 9 14 10 22 1 31 -18 18 22 75 74 105 26 16 43 33 42 43 -3 30 1 47 14
65 10 14 18 15 40 7 21 -8 33 -7 57 7 29 16 31 16 41 0 11 -20 34 -24 45 -7 3
6 1 16 -5 22 -17 17 -13 27 9 27 13 0 22 9 26 28 4 15 11 33 16 39 17 21 0 63
-25 64 -14 0 -16 2 -7 6 41 13 57 26 53 43 -3 12 5 21 27 30 17 7 37 21 44 32
8 10 31 21 52 25 22 3 47 12 56 20 9 8 27 13 40 11 32 -4 36 -37 7 -59 -18
-14 -21 -21 -12 -30 17 -17 97 -2 118 21 10 11 28 20 41 20 25 0 85 29 97 47
12 19 35 41 49 46 9 3 7 9 -7 21 -16 12 -17 15 -4 16 8 0 19 -4 25 -10 6 -6
19 -1 36 15 31 28 73 33 82 9 4 -10 13 -13 26 -9 13 4 23 0 32 -14 11 -18 13
-18 24 -3 11 15 14 15 33 -2 20 -18 22 -18 41 -1 19 17 21 17 39 1 10 -9 41
-19 69 -23 35 -4 58 -13 73 -29 13 -14 34 -24 49 -24 14 0 31 -5 37 -11 8 -8
13 -8 17 0 4 6 20 11 36 11 22 0 29 -5 32 -22 2 -17 12 -24 43 -30 22 -5 45
-16 52 -24 6 -9 17 -13 23 -9 13 8 42 -14 34 -26 -3 -5 -2 -14 2 -21 5 -8 11
-5 20 7 13 17 15 17 32 2 10 -9 28 -17 40 -17 13 0 22 -6 22 -15 0 -24 28 -29
50 -10 17 16 20 16 44 -1 29 -18 26 -29 -7 -29 -15 0 -23 -7 -25 -22 -3 -20 0
-21 51 -19 29 2 63 9 75 15 34 18 52 14 52 -14 0 -20 5 -25 25 -25 14 0 25 -5
25 -10 0 -12 -41 -30 -52 -23 -5 2 -8 0 -8 -5 0 -5 11 -14 24 -20 l25 -11 -27
-29 c-15 -15 -35 -31 -44 -35 -10 -3 -18 -15 -18 -26 0 -11 -5 -23 -11 -26 -6
-5 -3 -13 10 -22 12 -8 21 -20 21 -27 0 -8 10 -20 21 -28 18 -11 20 -18 12
-34 -12 -23 -6 -44 12 -44 17 0 24 20 18 53 -4 20 -1 27 11 27 10 0 16 -9 16
-24 0 -14 5 -28 10 -31 16 -10 11 -42 -7 -49 -15 -6 -15 -8 -3 -16 8 -6 27
-10 42 -10 38 0 42 -13 12 -45 -17 -19 -22 -31 -15 -38 7 -7 15 -6 24 2 18 14
27 -4 27 -55 0 -28 -6 -38 -35 -56 -40 -26 -43 -34 -15 -43 24 -8 26 -21 5
-32 -8 -5 -16 -19 -17 -33 -3 -20 2 -25 27 -30 21 -4 30 -11 30 -25 1 -11 4
-26 9 -33 4 -7 -1 -24 -13 -41 -12 -16 -21 -36 -21 -45 0 -19 21 -21 38 -4 9
9 15 9 24 0 8 -8 5 -14 -14 -22 -14 -7 -33 -26 -43 -42 -17 -30 -19 -30 -32
-12 -15 20 -33 21 -70 2 -16 -8 -26 -7 -43 5 -14 10 -30 12 -48 8 -41 -11 -34
-35 13 -41 32 -4 41 -9 43 -27 4 -27 -14 -30 -40 -6 -19 17 -29 12 -40 -20 -2
-4 -19 -9 -38 -10 -19 -1 -40 -6 -46 -10 -6 -3 -34 -5 -62 -3 -37 3 -49 0 -46
-8 3 -7 -13 -25 -36 -41 -22 -15 -40 -32 -40 -36 0 -5 -13 -21 -30 -36 -16
-14 -30 -30 -30 -34 0 -20 -54 -61 -76 -56 -16 3 -24 -2 -27 -15 -4 -14 -15
-18 -56 -18 -28 0 -51 -4 -51 -10 0 -5 -7 -10 -15 -10 -18 0 -19 14 -4 41 8
17 7 23 -8 35 -24 18 -49 18 -57 -1 -3 -8 -17 -15 -31 -15 -29 0 -32 8 -7 26
16 13 15 14 -6 20 -15 4 -25 17 -29 35 -4 21 -12 29 -32 31 -17 2 -30 13 -39
31 -8 16 -20 31 -28 34 -8 3 -14 14 -14 24 0 20 -44 44 -60 34 -14 -8 -92 25
-121 52 -28 25 -77 43 -121 43 -21 0 -28 5 -28 20 0 20 -43 46 -59 35 -5 -2
-31 4 -59 14 -41 15 -59 17 -85 9 -28 -9 -45 -6 -97 12 -43 15 -85 22 -139 22
-115 0 -122 -1 -166 -38 -31 -25 -52 -34 -79 -34 -25 0 -36 -4 -36 -15 0 -9
-16 -23 -35 -32 -19 -9 -35 -21 -35 -27 0 -5 -9 -20 -21 -32 l-21 -22 22 -12
c14 -8 19 -17 15 -30 -3 -11 -1 -29 5 -41 11 -19 18 -21 77 -17 48 3 69 9 79
22 14 19 34 14 34 -10 0 -8 7 -14 15 -14 8 0 15 9 15 19 0 11 4 23 10 26 14 9
252 13 275 5 11 -4 28 -4 37 1 26 14 51 0 44 -24 -6 -25 10 -48 30 -40 10 4
13 -1 12 -18 -3 -20 1 -23 21 -21 23 4 23 2 17 -42 -6 -37 -4 -46 8 -46 20 0
29 -16 21 -40 -4 -12 -14 -19 -23 -18 -10 2 -18 -5 -20 -17 -6 -31 -22 -45
-50 -45 l-26 0 22 16 c18 13 21 19 11 30 -29 35 -99 -10 -84 -55 7 -24 -18
-31 -112 -31 -39 0 -74 -4 -77 -8 -2 -4 -23 -6 -45 -4 -32 3 -41 8 -41 23 0
25 -20 24 -27 -1 -6 -21 -58 -36 -93 -27 -10 3 -25 -2 -31 -10 -9 -10 -27 -13
-58 -11 -39 3 -47 0 -56 -19 -5 -12 -20 -27 -34 -33 -36 -17 -14 -29 61 -35
52 -4 76 -11 111 -35 25 -16 53 -30 62 -30 9 0 29 -9 44 -19 15 -11 42 -23 61
-28 19 -5 36 -16 38 -25 2 -12 -8 -17 -45 -20 -26 -2 -55 0 -64 5 -12 7 -22 4
-38 -12 l-22 -22 31 -29 c33 -30 94 -53 142 -52 14 0 44 -8 64 -19 21 -10 46
-19 56 -19 10 0 28 -10 39 -21 21 -21 23 -21 68 -5 52 18 91 21 91 6 0 -14 28
-12 58 4 15 8 56 25 92 38 40 15 69 32 75 45 15 30 93 93 115 93 25 0 35 18
19 36 -16 20 -3 30 17 13 15 -12 18 -12 22 0 3 8 16 25 28 38 13 13 24 33 24
44 0 12 8 23 20 26 11 3 20 9 20 14 0 5 20 9 45 9 30 0 50 6 62 19 10 10 27
21 38 24 19 4 18 5 -2 6 -12 0 -25 -3 -28 -9 -7 -12 -45 -14 -45 -2 1 15 46
60 67 66 18 6 22 14 20 39 -1 23 2 32 13 32 11 0 15 -11 15 -42 0 -52 7 -59
45 -43 33 14 38 25 14 34 -13 5 -13 9 3 30 22 31 41 36 74 20 23 -11 28 -10
52 12 14 13 33 24 42 24 20 0 19 -6 -5 -30 -11 -11 -23 -34 -27 -50 -3 -16 -9
-28 -13 -25 -9 6 -50 -23 -50 -36 0 -5 10 -13 22 -18 20 -7 22 -15 23 -125 1
-73 6 -121 13 -128 15 -15 16 -45 2 -53 -21 -13 -2 -97 33 -143 11 -15 18 -72
8 -72 -3 0 -12 -4 -19 -9 -12 -7 -12 -12 -1 -29 12 -19 11 -23 -5 -35 -24 -17
-15 -67 12 -67 16 -1 16 -1 0 -11 -22 -12 -23 -32 -4 -48 18 -15 15 -94 -4
-134 -10 -19 -10 -31 -3 -38 8 -8 2 -20 -21 -41 -53 -52 -68 -58 -137 -56 -35
0 -109 -2 -164 -7 -255 -19 -514 -19 -534 1 -3 2 5 11 17 20 14 10 22 26 22
45 0 27 -2 29 -20 19 -23 -13 -40 -6 -40 16 0 11 -8 15 -27 13 -16 -2 -38 3
-51 9 -20 11 -23 10 -31 -11 -5 -13 -21 -31 -35 -40 -14 -10 -26 -26 -26 -37
0 -14 -10 -22 -37 -29 -36 -10 -116 -21 -175 -24 -27 -2 -57 -30 -58 -55 0 -7
19 -30 42 -52 l42 -39 -16 -35 c-17 -34 -19 -35 -48 -24 -35 12 -63 48 -58 75
1 10 -2 19 -7 20 -6 2 -10 -13 -11 -32 -1 -22 -10 -45 -23 -59 -16 -17 -20
-30 -15 -50 3 -15 2 -26 -4 -26 -5 0 -13 12 -16 26 -7 26 -24 28 -37 3 -31
-64 -31 -66 -14 -93 17 -26 17 -60 0 -100 -7 -15 -5 -18 7 -14 29 11 43 -9 43
-62 0 -48 19 -73 21 -27 2 49 4 57 13 57 6 0 10 -39 10 -87 0 -87 -12 -143
-31 -143 -6 0 -8 -14 -4 -36 4 -19 3 -41 -2 -47 -5 -7 -13 -43 -17 -82 -4 -38
-12 -76 -17 -82 -11 -14 -2 -96 13 -125 5 -9 19 -18 31 -20 19 -2 24 -10 26
-40 3 -35 1 -38 -22 -38 -22 0 -26 4 -26 31 0 37 -23 35 -28 -2 -2 -13 -8 -29
-14 -36 -5 -7 -7 -21 -4 -31 4 -11 0 -24 -8 -31 -11 -9 -12 -19 -6 -34 5 -12
11 -34 14 -49 6 -25 11 -28 45 -28 l39 0 -16 50 c-12 37 -13 53 -5 61 21 21
43 2 43 -38 1 -53 67 -111 137 -119 81 -9 88 -12 99 -43 15 -39 63 -50 110
-25 28 15 38 16 54 6 26 -16 55 -15 91 3 16 9 39 14 52 13 12 -2 22 2 22 7 0
6 -9 10 -20 10 -11 0 -26 4 -33 9 -9 5 -29 2 -53 -9 -42 -19 -62 -14 -38 10
20 21 180 25 204 5 10 -8 32 -15 50 -16 42 -1 85 -29 85 -54 0 -14 7 -20 23
-20 57 1 89 -12 99 -41 6 -18 17 -29 29 -29 17 0 39 -27 39 -48 0 -5 -9 -12
-19 -15 -11 -3 -22 -17 -26 -36 -9 -43 -38 -42 -33 1 2 25 -1 34 -15 36 -17 3
-19 -2 -17 -50 1 -29 2 -59 1 -65 -1 -15 -41 -18 -41 -3 0 14 -57 12 -188 -5
-82 -11 -119 -12 -141 -4 -22 8 -40 8 -62 0 -27 -9 -38 -7 -87 21 -32 17 -63
39 -70 50 -9 12 -26 18 -55 18 -71 0 -117 18 -128 49 -11 31 -76 65 -103 55
-9 -3 -16 -1 -16 4 0 6 -20 20 -44 31 -24 10 -52 31 -62 46 -14 21 -23 26 -47
22 -26 -3 -31 1 -50 40 -19 38 -25 43 -45 38 -17 -4 -28 0 -38 12 -12 17 -15
17 -43 1 -38 -21 -49 -7 -22 28 l21 26 -23 17 c-12 9 -34 24 -49 34 -16 10
-28 27 -30 44 -2 18 -10 29 -22 31 -14 3 -17 0 -12 -13 3 -9 3 -21 0 -27 -9
-14 -38 32 -40 62 -4 51 -22 80 -51 80 -16 0 -38 3 -50 6 -18 5 -23 1 -29 -21
-4 -17 -11 -24 -21 -21 -8 3 -24 6 -35 6 -19 0 -19 4 -13 63 7 61 23 95 32 70
10 -28 31 -13 30 22 -1 20 6 42 17 54 21 23 4 40 -21 20 -13 -11 -17 -10 -29
6 -8 10 -14 24 -14 31 0 6 -7 17 -16 25 -11 9 -14 22 -9 46 6 32 5 33 -15 21
-17 -11 -22 -11 -30 2 -5 8 -7 23 -4 33 3 10 0 25 -6 33 -8 8 -10 27 -6 45 3
19 1 38 -5 46 -9 10 -9 20 0 39 16 35 14 41 -11 48 -18 5 -20 8 -9 15 8 5 11
16 8 25 -8 20 -27 21 -27 2 0 -29 -20 -26 -58 9 -34 30 -46 35 -91 35 -32 0
-51 -4 -51 -12 0 -6 19 -36 43 -66 l42 -55 0 -131 c0 -110 3 -137 19 -166 15
-27 20 -61 23 -147 2 -73 0 -113 -7 -113 -5 0 -10 7 -10 15 0 8 -4 15 -9 15
-17 0 -23 -20 -11 -35 9 -11 9 -15 1 -15 -6 0 -11 -8 -11 -18 0 -10 -7 -28
-16 -40 -15 -22 -15 -25 7 -48 12 -13 32 -24 43 -24 12 0 30 -7 40 -15 11 -8
30 -15 43 -15 13 0 29 -10 39 -25 23 -36 41 -31 65 18 12 23 28 46 35 50 8 4
14 21 14 36 0 16 7 31 15 35 8 3 15 15 15 26 0 23 39 44 55 29 6 -6 -2 -19
-23 -35 -25 -20 -32 -33 -32 -60 0 -37 19 -47 27 -14 3 11 12 20 19 20 8 0 17
7 20 15 4 8 11 15 16 15 7 0 9 -20 5 -52 -4 -40 -1 -57 11 -71 12 -14 13 -24
5 -52 -14 -46 6 -102 60 -168 24 -29 37 -53 33 -63 -3 -8 -1 -25 5 -36 9 -18
8 -24 -7 -35 -12 -8 -15 -16 -8 -23 16 -16 64 36 65 73 1 26 2 28 6 7 2 -14
11 -42 20 -63 15 -35 15 -38 -2 -57 -12 -14 -25 -18 -41 -14 -19 5 -24 2 -24
-14 0 -17 7 -21 37 -24 35 -3 38 -6 46 -45 6 -31 13 -42 32 -47 13 -3 30 -3
38 0 8 3 25 -7 40 -25 28 -34 47 -40 47 -15 0 9 6 14 13 12 20 -7 14 -42 -10
-53 -28 -12 -49 -53 -25 -51 11 1 19 -13 26 -49 11 -47 13 -50 44 -50 32 0 36
-4 33 -37 -2 -12 5 -18 18 -18 11 0 25 -9 31 -20 9 -16 15 -18 36 -10 44 17
59 12 72 -24 7 -18 21 -41 32 -51 11 -10 20 -26 20 -35 0 -19 27 -30 73 -30
37 0 31 -23 -8 -30 -25 -5 -27 -6 -12 -19 10 -7 17 -22 17 -31 0 -13 19 -28
60 -47 33 -15 60 -34 60 -41 0 -21 31 -62 46 -62 8 0 14 9 14 20 0 11 4 20 9
20 16 0 30 -26 25 -47 -9 -32 36 -40 58 -10 10 12 18 20 19 17 5 -23 9 -136 5
-147 -5 -11 -10 -12 -28 -2 -13 7 -28 19 -34 28 -19 25 -41 -3 -42 -52 -1 -24
-6 -56 -12 -71 -5 -15 -11 -42 -11 -59 -2 -29 -2 -30 -6 -5 -6 40 -28 54 -46
28 -12 -18 -16 -19 -27 -5 -21 25 -32 17 -28 -23 l3 -37 -45 0 c-36 0 -45 4
-48 19 -2 11 3 25 12 32 15 11 15 12 -1 16 -10 3 -22 7 -28 9 -5 2 -12 -9 -15
-26 -6 -35 -36 -43 -33 -9 1 12 -7 30 -17 39 -19 17 -21 17 -40 0 -10 -9 -26
-15 -35 -12 -8 4 -15 3 -15 -1 0 -5 15 -13 33 -20 17 -7 41 -19 52 -27 16 -13
18 -19 7 -35 -7 -12 -8 -21 -2 -25 6 -3 10 1 10 9 0 23 29 20 49 -6 14 -16 29
-21 64 -21 26 0 47 -4 47 -9 0 -9 -11 -11 -60 -8 -19 1 -53 2 -75 2 -22 1 -43
5 -46 10 -3 4 -23 9 -45 11 -34 2 -39 -1 -42 -22 -6 -38 14 -49 40 -21 l22 23
20 -25 c18 -22 25 -24 49 -16 33 12 59 -4 40 -23 -8 -8 -17 -8 -32 1 -17 9
-22 8 -27 -3 -5 -13 -9 -13 -35 0 -24 12 -33 12 -44 3 -20 -17 -20 -51 0 -44
12 5 15 -3 15 -35 l0 -41 -40 0 c-22 0 -40 5 -40 10 0 18 -46 11 -74 -11 -15
-12 -30 -19 -33 -15 -9 9 -32 49 -39 68 -7 20 -66 42 -91 34 -19 -6 -118 78
-109 92 6 11 -16 75 -32 95 -19 23 11 67 47 67 25 1 24 1 -8 16 -31 13 -36 13
-52 -2 -10 -9 -15 -21 -13 -28 3 -7 -2 -18 -10 -25 -11 -10 -19 -9 -35 1 -28
17 -26 36 4 48 14 5 25 13 25 18 0 17 -46 49 -90 61 -75 22 -90 30 -90 49 0
14 -93 216 -107 231 -2 3 -11 -2 -20 -11 -10 -11 -13 -22 -8 -35 8 -16 23
-128 40 -288 10 -99 36 -228 51 -257 8 -14 14 -33 14 -41 0 -23 34 -95 89
-186 28 -45 53 -93 56 -105 7 -23 29 -74 53 -120 8 -16 51 -73 96 -128 44 -55
99 -134 122 -177 50 -96 81 -141 98 -141 22 0 48 -37 41 -59 -11 -36 22 -80
98 -127 40 -25 86 -55 102 -67 26 -19 43 -22 135 -22 97 0 110 2 170 31 95 46
213 104 230 113 53 29 77 38 88 34 20 -8 59 35 66 71 8 41 27 59 91 86 37 15
82 53 172 143 192 191 320 306 342 307 8 0 25 9 37 21 20 19 26 20 58 9 20 -6
49 -9 65 -5 39 8 44 -5 20 -51 -11 -21 -18 -48 -15 -58 3 -11 0 -26 -6 -34 -9
-10 -9 -15 0 -21 6 -3 15 -17 20 -30 l8 -23 31 26 c37 31 39 32 46 5 7 -24 34
-23 51 3 15 25 -7 47 -29 28 -20 -17 -19 1 2 39 22 38 49 45 67 19 13 -19 15
-18 27 16 10 28 15 32 23 20 10 -13 14 -12 34 2 15 10 21 22 17 34 -3 10 -1
21 5 25 5 3 10 15 10 27 0 11 14 37 30 58 32 40 38 66 18 72 -13 5 31 110 51
123 6 3 11 23 11 43 0 20 5 55 11 77 21 79 21 85 10 85 -6 0 -11 -9 -11 -19 0
-34 -19 -33 -33 1 -12 29 -12 36 2 55 9 12 22 23 29 23 18 0 15 17 -5 29 -14
7 -15 13 -6 33 7 15 9 67 5 141 -4 100 -7 117 -21 115 -12 -2 -15 3 -12 22 8
46 -5 143 -25 187 -8 17 -14 43 -14 58 0 15 -8 40 -17 56 -16 26 -16 29 0 47
14 16 25 18 57 12 53 -10 70 -26 70 -66 0 -23 6 -38 20 -46 12 -8 20 -24 20
-40 0 -32 42 -78 73 -80 30 -2 167 65 176 86 19 46 77 58 118 26 14 -11 39
-20 55 -20 77 0 259 116 279 178 9 27 103 130 189 207 49 45 101 110 109 140
8 31 6 41 -15 73 -14 20 -31 40 -39 44 -19 11 19 88 43 88 18 0 62 39 62 54 0
4 -20 4 -44 1 -44 -7 -46 -6 -95 45 l-51 52 -127 2 -128 2 -47 -40 c-26 -23
-61 -62 -78 -88 -17 -26 -39 -50 -49 -53 -11 -3 -35 -25 -54 -49 -31 -37 -40
-42 -67 -38 -20 3 -37 -1 -49 -12 -22 -20 -164 -39 -170 -23 -16 42 -88 63
-85 24 1 -9 -2 -17 -7 -17 -4 0 -22 -13 -38 -29 -26 -26 -28 -31 -15 -42 14
-12 14 -14 -3 -27 -17 -13 -17 -14 2 -28 19 -14 19 -16 3 -28 -24 -17 -23 -32
2 -39 16 -4 19 -11 15 -30 -5 -18 -2 -26 12 -31 17 -7 17 -8 -3 -24 -11 -9
-29 -43 -38 -74 -10 -32 -21 -58 -25 -58 -18 0 -40 28 -43 55 -3 25 -9 31 -40
39 -40 10 -53 36 -18 36 11 0 20 4 20 9 0 4 18 21 40 36 22 15 40 31 40 34 0
3 -10 11 -22 16 -13 6 -24 20 -26 33 -2 15 -9 22 -20 20 -31 -5 -15 45 25 80
31 27 35 35 23 42 -8 5 -21 10 -28 10 -7 0 -17 11 -22 25 -5 14 -14 25 -20 25
-5 0 -9 14 -8 32 3 26 -3 35 -29 52 -44 29 -46 74 -3 98 17 10 32 28 36 45 4
15 19 39 34 53 15 14 41 50 58 80 17 30 47 73 66 95 19 22 42 56 51 75 9 19
31 46 50 58 l33 23 -20 50 c-11 27 -25 49 -30 49 -6 0 -7 -7 -4 -16 3 -8 1
-24 -5 -35 -8 -16 -19 -19 -53 -18 -51 3 -66 -5 -66 -36 0 -12 -6 -25 -14 -28
-7 -3 -16 -21 -20 -40 -4 -23 -13 -37 -26 -40 -11 -3 -20 -12 -20 -21 0 -20
-53 -48 -75 -40 -11 5 -18 0 -22 -15 -4 -17 -13 -21 -50 -21 -24 0 -62 9 -85
20 -22 11 -45 17 -49 14 -15 -9 -49 59 -49 96 0 19 7 48 15 64 8 15 15 32 15
38 0 20 101 122 143 144 46 24 89 111 91 185 1 19 151 160 260 241 44 34 85
68 89 75 4 7 13 13 19 13 6 0 26 14 45 30 18 17 43 30 54 30 11 0 52 24 92 54
75 55 97 69 182 108 28 12 71 37 96 54 25 18 70 43 100 57 30 14 72 33 94 44
27 12 61 18 105 17 86 -2 118 -24 268 -176 25 -27 55 -48 65 -48 10 0 21 -9
24 -20 6 -24 45 -27 63 -5 7 9 24 38 36 66 l24 50 33 -25 c19 -14 38 -26 42
-26 5 0 26 19 47 43 23 25 48 42 61 42 17 0 23 7 25 28 4 29 0 32 -27 18 -10
-6 -23 -6 -31 -1 -12 7 -12 15 -2 43 13 35 16 134 6 161 -3 9 -13 16 -21 16
-8 0 -32 13 -52 28 -26 21 -48 29 -81 30 -68 2 -123 13 -145 28 -11 8 -28 14
-38 14 -11 0 -28 11 -39 25 -21 27 -38 33 -38 13 0 -7 -18 -30 -40 -52 -28
-28 -45 -37 -60 -33 -13 3 -24 -1 -30 -14 -11 -20 -50 -27 -50 -9 0 24 -37 6
-63 -30 -16 -22 -35 -40 -42 -40 -8 0 -19 -9 -25 -20 -6 -11 -20 -20 -32 -20
-11 0 -26 -7 -32 -16 -7 -8 -32 -18 -56 -21 -29 -3 -51 -13 -62 -27 -14 -18
-30 -22 -101 -24 -63 -3 -92 0 -115 12 -17 9 -45 16 -62 16 -17 0 -47 7 -67
15 -20 9 -44 13 -52 9 -36 -15 -324 -20 -329 -5 -1 5 -23 4 -47 -1 -35 -7 -49
-6 -68 7 -21 14 -24 22 -22 71 1 44 -2 60 -17 74 -17 15 -17 22 -7 61 6 24 13
65 16 92 4 38 2 47 -11 47 -12 0 -16 -10 -16 -35 0 -43 -25 -48 -34 -7 -4 15
-9 35 -12 45 -4 11 0 17 10 17 22 0 20 9 -8 31 l-25 19 25 27 25 28 18 -24
c18 -24 18 -24 49 -5 36 21 53 13 29 -14 -15 -17 -24 -72 -12 -72 2 0 19 9 37
20 36 22 73 26 83 10 4 -6 15 -8 26 -5 15 5 19 1 19 -14 0 -25 31 -29 50 -6 8
10 21 13 38 8 15 -3 40 -6 57 -5 73 4 131 10 145 15 8 3 54 8 101 11 84 6 86
5 97 -19 12 -26 27 -32 37 -14 5 6 11 4 19 -6 11 -15 16 -14 58 14 53 36 58
37 58 14 0 -10 -18 -35 -40 -57 -22 -21 -40 -47 -40 -57 0 -25 14 -24 31 1 8
12 25 22 39 22 14 1 39 14 55 28 17 15 49 39 73 54 23 14 42 31 42 36 0 5 12
13 28 16 15 4 50 23 78 41 57 38 161 59 241 50 24 -2 49 0 56 7 14 11 37 99
37 142 0 17 12 32 41 51 27 18 39 32 36 43 -2 9 2 28 9 41 7 13 13 40 14 60 0
20 7 42 15 49 18 15 20 71 4 87 -9 9 -8 15 2 26 19 18 27 391 10 401 -17 11
-14 56 4 56 22 0 18 27 -10 64 -14 18 -25 38 -25 45 0 7 -7 25 -15 42 -9 16
-20 53 -26 82 -6 28 -14 68 -18 87 -4 19 -18 55 -30 80 -16 32 -24 70 -28 130
-3 47 -10 91 -16 99 -33 40 -46 115 -35 190 2 19 -2 25 -21 28 -35 5 -37 10
-11 31 29 23 22 45 -18 63 -32 14 -35 23 -50 124 -5 28 -13 59 -19 71 -7 11
-10 29 -7 40 3 12 -11 42 -35 79 -22 33 -41 68 -41 78 0 10 -7 20 -15 23 -8 4
-24 27 -35 52 -12 26 -29 56 -39 67 -10 11 -25 34 -32 50 -11 22 -21 30 -41
30 -32 0 -59 24 -89 79 -15 28 -38 52 -68 69 -25 14 -97 75 -159 134 -91 87
-112 113 -112 136 0 20 -7 30 -24 37 -13 5 -32 23 -42 39 -10 17 -22 31 -26
31 -4 0 -8 7 -8 15 0 13 -130 15 -1109 15 -1073 0 -1109 -1 -1114 -19z m1733
-1031 c0 -5 -7 -10 -15 -10 -8 0 -15 5 -15 10 0 6 7 10 15 10 8 0 15 -4 15
-10z m129 -276 c23 -5 31 -12 31 -27 0 -16 -3 -18 -11 -10 -7 7 -24 9 -39 6
-28 -5 -46 9 -35 27 7 12 12 12 54 4z m231 -621 c0 -5 -6 -16 -13 -25 -16 -20
-40 -8 -31 15 6 17 44 25 44 10z m48 -45 c7 -7 12 -25 12 -41 0 -16 4 -26 10
-22 6 3 10 15 10 26 0 28 19 23 33 -8 6 -16 18 -33 26 -39 11 -8 11 -15 2 -32
-6 -12 -16 -22 -21 -22 -6 0 -10 -7 -10 -15 0 -8 -9 -19 -20 -25 -11 -6 -20
-18 -20 -28 0 -13 -2 -14 -9 -3 -9 14 17 71 32 71 4 0 7 5 7 10 0 6 -13 10
-29 10 -31 0 -81 37 -81 60 0 14 32 70 40 70 3 0 11 -5 18 -12z m256 -29 c-9
-10 -23 -19 -30 -19 -7 0 -16 -9 -19 -20 -8 -25 -28 -27 -23 -3 2 10 16 24 31
31 16 8 31 20 34 28 3 8 9 11 15 8 5 -3 2 -14 -8 -25z m-174 -553 c0 -2 2 -10
5 -18 3 -8 -9 -21 -30 -32 -37 -20 -56 -16 -36 8 8 10 9 16 1 21 -21 13 -9 25
25 25 19 0 35 -2 35 -4z m-129 -35 c23 -21 18 -59 -11 -86 -17 -15 -19 -15
-33 6 -14 19 -14 25 -2 43 8 11 15 28 15 38 0 23 6 23 31 -1z m-155 -21 c8 0
14 -5 14 -11 0 -6 -7 -8 -16 -5 -9 3 -18 6 -20 6 -2 0 -4 8 -3 18 0 10 3 12 6
5 2 -7 11 -13 19 -13z m-36 -37 c0 -10 -4 -25 -10 -33 -8 -12 -10 -12 -16 3
-7 20 1 47 16 47 5 0 10 -8 10 -17z m310 2 c17 -20 4 -35 -31 -35 -34 0 -35 3
-11 29 21 24 26 25 42 6z m-3225 -406 c10 -30 -8 -44 -29 -24 -13 13 -14 20
-5 31 16 20 27 17 34 -7z m2667 -311 c-6 -6 -15 -9 -18 -5 -4 3 -4 14 0 23 5
13 9 15 18 6 9 -9 9 -15 0 -24z m1468 4 c0 -14 -11 -21 -26 -15 -21 8 -17 23
6 23 11 0 20 -4 20 -8z m-1590 -92 c0 -5 -12 -10 -26 -10 -14 0 -23 4 -19 10
3 6 15 10 26 10 10 0 19 -4 19 -10z m-79 -59 c-13 -24 -41 -28 -41 -7 0 8 7
22 16 31 22 22 40 5 25 -24z m174 -68 c-6 -17 -27 -16 -51 2 -18 14 -18 15 11
39 l30 24 7 -26 c5 -15 6 -33 3 -39z m-218 10 c5 -15 -41 -28 -58 -17 -9 5 -7
11 7 21 21 16 45 14 51 -4z m-2271 -1109 c-4 -12 -10 -14 -17 -7 -5 5 -7 17
-3 27 4 12 10 14 17 7 5 -5 7 -17 3 -27z m1520 -13 c24 -15 33 -28 38 -61 3
-22 4 -45 1 -51 -4 -5 -25 -9 -48 -9 -36 0 -44 4 -59 31 -18 31 -16 70 5 97
13 17 27 15 63 -7z m-1581 -172 c11 -16 -1 -22 -30 -15 -14 4 -23 11 -20 16 8
13 42 13 50 -1z m1237 -191 c-17 -8 -26 -8 -34 0 -9 9 -4 12 23 11 32 0 33 -1
11 -11z m1071 -204 c9 -9 -4 -35 -14 -28 -5 3 -9 12 -9 20 0 14 12 19 23 8z
m-423 -74 c0 -21 -15 -27 -25 -10 -7 12 2 30 16 30 5 0 9 -9 9 -20z m823 -184
c3 -12 -30 -32 -39 -24 -11 12 5 40 21 36 9 -2 17 -7 18 -12z m-37 -82 c-5
-13 -10 -14 -18 -6 -6 6 -8 18 -4 28 5 13 10 14 18 6 6 -6 8 -18 4 -28z m594
-248 c0 -7 10 -20 23 -29 21 -14 21 -16 3 -23 -21 -8 -57 31 -49 53 7 17 23
17 23 -1z m-170 -19 c0 -29 -34 -67 -60 -67 -32 0 -32 18 -1 34 16 9 32 25 36
36 9 27 25 25 25 -3z m-1796 -509 c27 10 41 10 56 2 12 -6 20 -14 17 -18 -2
-4 -9 -22 -16 -39 -15 -37 -27 -42 -36 -14 -3 12 -19 21 -39 25 -34 6 -52 28
-40 48 4 6 10 5 15 -3 6 -11 14 -11 43 -1z m-19 -108 c3 -6 -1 -13 -10 -16
-19 -8 -30 0 -20 15 8 14 22 14 30 1z m-45 -109 c0 -24 -18 -37 -31 -24 -13
13 -1 43 17 43 8 0 14 -9 14 -19z m140 -66 c0 -9 -9 -15 -21 -15 -18 0 -19 2
-9 15 7 8 16 15 21 15 5 0 9 -7 9 -15z m-587 -165 c3 -13 0 -20 -9 -20 -8 0
-14 2 -14 4 0 2 -3 11 -6 20 -4 10 -1 16 9 16 8 0 17 -9 20 -20z"/>
<path d="M3997 8953 c-14 -13 -6 -23 18 -23 16 0 25 6 25 15 0 15 -31 21 -43
8z"/>
<path d="M5592 7975 c-14 -14 -19 -26 -12 -30 5 -3 13 1 16 9 3 9 12 16 20 16
8 0 14 4 14 9 0 20 -16 18 -38 -4z"/>
<path d="M5660 7940 c0 -13 28 -25 38 -16 3 4 0 11 -8 16 -20 13 -30 12 -30 0z"/>
<path d="M5965 7810 c-8 -13 15 -24 27 -12 6 6 4 11 -6 15 -8 3 -18 2 -21 -3z"/>
<path d="M4195 7689 c-10 -15 1 -23 20 -15 9 3 13 10 10 16 -8 13 -22 13 -30
-1z"/>
<path d="M5995 7569 c-10 -15 3 -25 16 -12 7 7 7 13 1 17 -6 3 -14 1 -17 -5z"/>
<path d="M4170 7505 c0 -9 6 -12 15 -9 8 4 12 10 9 15 -8 14 -24 10 -24 -6z"/>
<path d="M5955 7420 c-8 -12 20 -24 35 -15 6 3 8 11 5 16 -8 12 -32 12 -40 -1z"/>
<path d="M6017 7364 c-9 -10 2 -24 19 -24 8 0 14 7 14 15 0 15 -21 21 -33 9z"/>
<path d="M5683 6753 c-7 -2 -13 -13 -13 -24 0 -14 7 -19 25 -19 26 0 29 7 19
34 -6 17 -11 18 -31 9z"/>
<path d="M4027 6733 c-10 -9 -9 -23 2 -23 5 0 11 7 15 15 5 15 -5 20 -17 8z"/>
<path d="M4074 6499 c-3 -6 -1 -16 5 -22 8 -8 11 -5 11 11 0 24 -5 28 -16 11z"/>
<path d="M3986 6462 c-3 -6 -1 -14 5 -17 15 -10 25 3 12 16 -7 7 -13 7 -17 1z"/>
<path d="M7853 5495 c-3 -9 2 -24 11 -34 9 -10 16 -23 16 -29 0 -7 7 -12 15
-12 16 0 19 28 9 68 -7 25 -41 30 -51 7z"/>
<path d="M8027 5421 c-5 -22 -78 -38 -122 -27 -21 5 -25 2 -33 -26 l-8 -33 -7
28 c-9 35 -35 35 -43 0 -5 -18 -2 -30 8 -37 14 -10 14 -15 2 -39 -16 -30 -5
-67 20 -67 32 0 40 -76 34 -310 -2 -54 1 -263 5 -370 3 -81 21 -63 27 27 l5
78 37 -3 c34 -3 38 -1 53 33 8 21 15 52 15 70 0 33 0 33 -42 28 -38 -5 -41 -4
-25 8 10 8 19 28 20 44 2 26 -2 30 -25 33 -16 2 -28 8 -28 13 0 12 60 2 75
-12 13 -13 52 -11 61 2 8 13 -14 29 -31 23 -16 -7 -41 44 -28 57 6 6 8 30 5
55 -3 31 0 50 11 62 11 12 14 37 13 85 0 38 2 71 7 74 4 2 7 13 7 23 0 12 8
20 23 22 20 3 22 7 18 63 -2 33 -7 62 -11 65 -4 3 -9 14 -11 24 -5 27 -25 31
-32 7z m-32 -121 c-5 -8 -11 -8 -17 -2 -6 6 -7 16 -3 22 5 8 11 8 17 2 6 -6 7
-16 3 -22z m0 -102 c-10 -46 -12 -48 -46 -48 -38 0 -40 27 -1 32 21 2 27 8 25
26 -2 14 3 22 13 22 12 0 14 -7 9 -32z m-47 -87 c11 -7 10 -10 -3 -15 -20 -7
-38 1 -30 15 7 11 16 11 33 0z m20 -143 c2 -19 -3 -30 -18 -38 -36 -19 -52 9
-29 51 14 28 43 20 47 -13z m-31 -272 c-4 -9 -11 -16 -17 -16 -11 0 -13 30 -3
56 6 16 7 16 16 -4 5 -11 7 -28 4 -36z"/>
<path d="M7214 4963 c-10 -15 -13 -16 -27 -4 -14 11 -21 11 -43 -4 -25 -16
-28 -16 -36 -1 -12 21 -34 21 -42 0 -6 -15 -8 -15 -24 -2 -24 20 -128 13 -111
-8 9 -11 8 -18 -5 -32 -9 -10 -16 -24 -16 -30 0 -14 -16 -16 -24 -3 -10 15
-44 1 -61 -25 -8 -13 -22 -24 -30 -24 -12 0 -35 -36 -35 -55 0 -2 20 -7 45
-10 24 -4 50 -13 56 -21 6 -8 22 -14 35 -14 13 0 24 -5 24 -10 0 -10 17 -19
66 -34 14 -4 33 2 58 19 45 30 72 32 86 5 6 -11 16 -20 23 -20 7 0 27 -16 46
-35 22 -23 40 -33 51 -30 11 3 20 -1 24 -10 9 -25 41 -17 52 14 6 16 26 35 44
45 40 20 40 20 40 1 0 -8 9 -15 20 -15 15 0 20 -7 20 -24 0 -14 5 -28 10 -31
6 -3 10 -15 10 -26 0 -28 45 -25 75 5 14 14 27 20 30 15 6 -9 45 -13 45 -5 0
23 -23 56 -39 56 -14 0 -18 5 -14 19 8 32 -14 61 -47 61 -17 0 -30 5 -30 10 0
6 -7 10 -15 10 -8 0 -15 -9 -15 -20 0 -12 -7 -20 -16 -20 -11 0 -14 5 -9 18
17 42 8 88 -26 127 -29 32 -30 38 -19 65 17 42 5 53 -35 30 -20 -11 -37 -15
-40 -10 -4 6 -17 10 -31 10 -15 0 -24 6 -24 15 0 21 -33 19 -46 -2z m-34 -68
c0 -8 -6 -15 -14 -15 -20 0 -29 17 -14 23 22 9 28 7 28 -8z m377 -211 c8 -20
-13 -33 -41 -26 -23 6 -37 22 -30 34 9 15 64 9 71 -8z"/>
<path d="M6069 4707 c-25 -19 -33 -56 -15 -63 25 -10 68 23 64 49 -4 25 -26
32 -49 14z"/>
<path d="M5991 4545 c-21 -7 -30 -15 -22 -19 6 -4 10 -19 9 -34 -4 -41 30 -43
38 -3 4 17 10 31 15 31 5 0 9 9 9 20 0 22 -1 23 -49 5z"/>
<path d="M8263 4143 c-10 -16 -13 -16 -22 -3 -5 8 -14 11 -18 6 -4 -4 7 -20
25 -35 34 -29 33 -41 -4 -41 -13 0 -27 -7 -31 -15 -6 -9 -29 -16 -66 -18 -66
-4 -99 -25 -78 -51 8 -9 17 -14 21 -11 18 11 18 -13 -1 -28 -10 -9 -19 -24
-19 -32 0 -9 -11 -20 -25 -25 -30 -11 -33 -30 -6 -30 26 0 34 -15 17 -29 -10
-8 -21 -8 -40 -1 -35 13 -36 13 -36 -3 0 -7 -21 -24 -47 -37 -42 -23 -48 -30
-60 -78 -7 -29 -22 -61 -33 -72 -11 -11 -20 -29 -20 -39 0 -14 -18 -28 -65
-50 -36 -17 -65 -37 -65 -45 0 -8 -7 -16 -15 -20 -8 -3 -15 -9 -14 -13 3 -20
-2 -24 -16 -13 -19 15 -35 5 -35 -24 0 -24 -28 -56 -48 -56 -25 0 -31 -37 -20
-141 16 -160 15 -185 -4 -206 -21 -23 -48 -96 -48 -129 0 -13 -8 -25 -18 -28
-11 -4 -25 -17 -32 -31 -16 -30 -61 -49 -95 -41 -19 5 -27 2 -32 -11 -4 -10
-11 -21 -17 -25 -6 -4 -4 -9 7 -14 23 -8 22 -21 -3 -29 -12 -4 -35 -31 -51
-61 -38 -66 -63 -83 -89 -59 -18 16 -19 16 -26 -9 -3 -14 -11 -26 -16 -26 -5
0 -7 -13 -3 -30 5 -23 3 -30 -8 -30 -21 0 -57 -48 -57 -75 0 -27 14 -40 55
-50 29 -7 29 -7 8 -16 -26 -9 -28 -21 -11 -48 9 -15 9 -26 -1 -47 -10 -23 -10
-29 3 -36 25 -14 19 -25 -15 -32 l-31 -6 23 -19 c22 -18 23 -20 6 -27 -10 -3
-29 -1 -43 6 -28 16 -42 7 -24 -15 18 -22 -8 -20 -32 2 -18 16 -22 16 -46 2
-15 -8 -28 -25 -30 -37 -3 -20 1 -22 37 -22 47 0 58 -25 16 -36 -35 -9 -75 3
-75 22 0 9 -6 14 -12 11 -7 -2 -13 -10 -13 -18 0 -14 -59 -79 -70 -79 -3 0
-14 6 -25 12 -16 10 -24 10 -38 0 -9 -7 -28 -17 -42 -24 -14 -6 -38 -24 -55
-39 -16 -15 -39 -29 -50 -31 -15 -2 -21 -12 -23 -43 -4 -51 14 -115 33 -115 8
0 15 -4 15 -10 0 -5 -9 -10 -19 -10 -11 0 -22 -4 -26 -9 -9 -16 32 -32 72 -29
40 3 57 -16 23 -27 -17 -5 -19 -10 -9 -21 6 -8 20 -14 31 -14 10 0 17 -4 13
-10 -3 -5 -12 -7 -19 -4 -8 3 -22 -9 -34 -28 -21 -33 -23 -34 -93 -35 -80 -1
-97 -10 -79 -43 17 -32 2 -39 -21 -10 l-19 25 -18 -24 c-14 -16 -25 -21 -39
-17 -11 4 -33 2 -48 -4 -24 -9 -30 -7 -55 20 -27 29 -40 30 -40 2 0 -20 -47
-62 -69 -62 -18 0 -71 -65 -71 -88 0 -7 -7 -12 -15 -12 -9 0 -20 -11 -25 -24
-5 -13 -25 -37 -44 -52 -38 -31 -38 -54 0 -29 14 9 29 13 35 10 12 -8 1 -47
-17 -58 -8 -4 -14 -18 -14 -31 0 -24 35 -76 51 -76 14 0 11 26 -6 40 -8 7 -15
25 -15 41 0 41 29 38 59 -6 13 -19 28 -35 33 -35 5 0 2 -10 -6 -22 -9 -12 -16
-30 -16 -39 0 -9 -7 -19 -15 -23 -8 -3 -12 -12 -9 -21 8 -20 23 -19 31 2 9 26
34 53 49 53 7 0 15 -14 19 -30 8 -35 27 -38 56 -9 17 17 20 29 15 58 -7 46 7
73 23 43 12 -23 5 -99 -10 -108 -5 -3 -9 -20 -9 -39 0 -41 -10 -49 -44 -34
-31 14 -42 7 -28 -18 6 -10 22 -18 36 -18 14 0 25 -4 23 -10 -1 -5 -12 -9 -24
-7 -29 4 -39 -15 -18 -38 16 -17 15 -19 -5 -30 -17 -9 -29 -7 -64 9 -51 25
-69 26 -86 6 -20 -24 3 -44 31 -27 26 17 37 8 32 -23 -4 -17 0 -27 11 -31 15
-6 15 -8 1 -31 -9 -13 -15 -36 -13 -51 2 -22 8 -27 30 -27 36 -1 45 -12 31
-35 -10 -14 -9 -21 1 -29 18 -15 28 -79 16 -101 -7 -13 -4 -25 10 -43 17 -21
18 -29 8 -55 -10 -27 -9 -34 7 -52 26 -29 59 -23 63 13 2 15 8 27 13 27 5 0 9
11 9 24 0 14 4 27 9 31 12 6 12 86 1 100 -4 6 -10 53 -14 105 -6 77 -4 99 8
115 9 11 16 32 16 46 0 14 11 43 25 63 14 20 25 48 25 61 0 39 36 68 73 60 18
-3 45 -7 61 -8 28 -2 29 -1 32 52 3 52 1 56 -42 99 -41 43 -44 50 -44 99 0 45
4 55 25 69 18 12 25 25 25 50 0 18 5 45 12 59 11 25 16 26 53 20 22 -3 51 -17
65 -30 17 -16 43 -26 78 -31 60 -8 62 -15 5 -18 -21 -2 -48 -3 -60 -4 -32 -3
-29 -28 5 -37 38 -9 60 -32 55 -58 -3 -18 4 -25 36 -39 26 -10 45 -26 51 -42
6 -18 14 -24 25 -20 22 9 46 -25 34 -48 -5 -10 -16 -18 -24 -18 -11 0 -15 -12
-15 -45 0 -41 2 -45 24 -45 14 0 28 5 31 10 9 15 35 12 35 -5 0 -8 9 -19 20
-25 11 -6 20 -18 20 -26 0 -9 -9 -18 -20 -21 -31 -8 -24 -33 9 -33 35 0 47
-13 26 -30 -11 -9 -12 -16 -2 -32 9 -16 9 -22 -1 -25 -7 -3 -19 -12 -28 -20
-23 -24 -3 -38 35 -25 19 7 31 7 31 1 0 -5 -6 -9 -14 -9 -12 0 -25 -28 -26
-52 0 -4 14 -11 32 -16 49 -12 44 -28 -14 -50 -38 -14 -54 -26 -56 -40 -4 -26
40 -41 63 -22 12 10 21 10 38 2 12 -5 30 -13 39 -15 25 -9 12 -41 -38 -93 -24
-25 -44 -47 -44 -49 0 -12 29 -3 34 10 9 25 30 17 46 -18 9 -20 24 -33 38 -35
25 -4 29 -24 7 -42 -8 -7 -15 -19 -15 -26 0 -10 -14 -14 -50 -14 -40 0 -51 -4
-60 -21 -14 -25 -2 -42 43 -60 18 -7 45 -21 60 -32 l28 -19 -51 -53 c-27 -30
-50 -58 -50 -63 0 -5 8 -16 18 -25 17 -15 74 -17 613 -17 l595 0 0 34 c0 26
-6 37 -22 44 -21 10 -34 48 -34 103 0 17 -13 47 -30 71 -16 22 -30 49 -30 60
0 10 -4 18 -9 18 -5 0 -12 11 -15 25 -4 16 -13 25 -26 25 -16 0 -19 -5 -13
-30 4 -23 2 -30 -11 -30 -9 0 -16 4 -16 8 0 5 -16 16 -35 25 -40 19 -41 24
-19 55 12 18 13 26 4 37 -9 10 -5 23 14 54 33 52 33 81 -1 122 -38 45 -93 158
-93 191 0 15 -4 28 -10 28 -17 0 -79 161 -105 271 -7 30 -18 66 -25 78 -13 25
-5 131 9 131 11 0 22 67 14 86 -9 25 -23 -4 -23 -48 0 -21 -4 -38 -9 -38 -10
0 -19 62 -23 153 -2 32 -9 63 -15 69 -7 6 -13 27 -13 47 0 20 -9 50 -20 66
-11 17 -20 38 -20 47 0 10 -14 44 -32 75 -17 32 -40 75 -50 95 -10 20 -22 40
-28 43 -5 3 -10 14 -10 23 0 10 -9 35 -20 57 -25 49 -25 62 0 75 17 9 20 17
15 44 -5 23 -2 36 9 45 9 8 16 24 16 36 0 13 11 37 25 53 14 17 25 35 25 42 0
7 14 29 30 50 17 21 30 47 30 59 0 12 6 21 15 21 9 0 15 -9 15 -21 0 -12 5
-19 13 -17 20 7 46 70 47 114 0 30 7 47 25 64 14 13 25 28 25 33 0 6 8 19 17
29 14 16 15 23 5 38 -17 27 -15 75 3 90 9 7 13 21 10 30 -8 27 12 70 33 70 15
0 22 15 35 78 9 42 17 87 17 100 0 12 6 22 14 22 25 0 53 51 74 135 11 44 27
94 36 110 9 17 16 38 16 48 0 9 4 25 9 35 4 9 13 32 19 51 9 28 9 36 -4 45
-13 10 -13 14 3 31 45 51 64 125 31 125 -5 0 -6 5 -3 10 3 6 15 10 26 10 21 0
25 20 7 38 -9 9 -4 12 23 12 28 0 40 7 57 30 19 25 21 34 11 51 -14 28 -3 69
19 69 21 0 96 86 87 100 -3 6 -15 10 -26 10 -11 0 -17 5 -14 10 3 6 15 10 26
10 23 0 24 6 4 26 -12 12 -12 20 -4 36 9 16 6 25 -14 47 -14 14 -27 35 -29 45
-4 26 -20 30 -35 9z m-248 -373 c24 0 17 -13 -25 -47 -57 -49 -83 -40 -72 25
3 17 11 22 33 22 21 0 29 5 29 18 1 16 1 16 11 0 5 -10 17 -18 24 -18z m-1395
-2281 c0 -10 -7 -19 -15 -19 -15 0 -21 31 -9 43 11 10 24 -3 24 -24z m-325
-79 c7 -21 -10 -62 -44 -108 -21 -29 -22 -34 -8 -45 8 -7 18 -31 22 -54 7 -43
7 -43 -24 -43 -32 0 -39 8 -20 27 17 17 0 63 -25 63 -16 0 -24 9 -31 33 -9 28
-14 32 -43 32 -17 0 -31 4 -29 10 2 5 21 10 43 10 43 0 62 28 24 38 -27 7 -26
29 3 26 12 -2 37 7 55 18 37 23 68 20 77 -7z m680 -349 c9 -15 -14 -23 -43
-16 l-27 8 25 7 c35 11 38 11 45 1z m-770 -356 c0 -25 -31 -43 -47 -27 -9 9
-8 16 8 31 22 23 39 22 39 -4z m855 -459 c0 -9 -40 -13 -46 -5 -3 5 6 9 20 9
14 0 26 -2 26 -4z m61 -29 c-13 -13 -26 -3 -16 12 3 6 11 8 17 5 6 -4 6 -10
-1 -17z"/>
<path d="M6230 1392 c0 -14 11 -21 26 -15 8 3 11 9 8 14 -7 11 -34 12 -34 1z"/>
<path d="M3858 4018 c9 -9 15 -9 24 0 9 9 7 12 -12 12 -19 0 -21 -3 -12 -12z"/>
<path d="M3375 3885 c8 -38 9 -38 34 -30 26 8 28 35 3 35 -10 0 -24 6 -31 13
-11 10 -12 7 -6 -18z"/>
<path d="M3313 3495 c-15 -33 -5 -135 13 -135 18 0 27 52 19 110 -8 56 -15 61
-32 25z"/>
<path d="M3715 3461 c-7 -12 12 -24 25 -16 11 7 4 25 -10 25 -5 0 -11 -4 -15
-9z"/>
<path d="M7285 2910 c8 -13 75 -13 95 0 11 7 -2 10 -43 10 -36 0 -56 -4 -52
-10z"/>
<path d="M7951 2806 c-9 -10 -9 -16 -1 -21 17 -10 37 12 24 25 -8 8 -15 6 -23
-4z"/>
<path d="M4467 2659 c-3 -12 -2 -29 2 -37 7 -13 10 -11 15 6 4 12 3 29 -2 38
-8 14 -10 13 -15 -7z"/>
<path d="M7884 2637 c-3 -9 -3 -25 1 -34 6 -16 8 -16 18 5 7 16 7 26 -1 34 -8
8 -13 7 -18 -5z"/>
<path d="M3877 2572 c-19 -9 -26 -17 -19 -24 13 -13 48 -2 56 17 8 21 -5 24
-37 7z"/>
<path d="M4016 2563 c-11 -11 -6 -23 9 -23 8 0 15 4 15 9 0 13 -16 22 -24 14z"/>
<path d="M4020 2375 c0 -9 5 -15 11 -13 6 2 11 8 11 13 0 5 -5 11 -11 13 -6 2
-11 -4 -11 -13z"/>
<path d="M6150 2269 c0 -11 5 -17 10 -14 6 3 10 13 10 21 0 8 -4 14 -10 14 -5
0 -10 -9 -10 -21z"/>
<path d="M6840 2194 c0 -9 7 -14 17 -12 25 5 28 28 4 28 -12 0 -21 -6 -21 -16z"/>
<path d="M2024 2169 c-10 -17 41 -63 62 -55 15 6 12 11 -16 36 -38 34 -37 34
-46 19z"/>
<path d="M6204 2116 c-8 -21 -1 -49 14 -54 8 -2 12 7 12 27 0 33 -17 51 -26
27z"/>
<path d="M2167 2053 c-21 -20 9 -62 45 -63 29 0 31 20 3 46 -27 25 -37 29 -48
17z"/>
<path d="M6236 2022 c-2 -4 -1 -14 3 -21 6 -10 10 -9 14 3 6 16 -8 32 -17 18z"/>
<path d="M6270 1931 c0 -12 5 -21 10 -21 6 0 10 6 10 14 0 8 -4 18 -10 21 -5
3 -10 -3 -10 -14z"/>
<path d="M2060 1910 c-28 -28 -25 -45 11 -71 31 -22 32 -22 46 -3 25 34 28 66
8 81 -26 18 -42 16 -65 -7z"/>
<path d="M6352 1691 c2 -7 7 -12 11 -12 12 1 9 15 -3 20 -7 2 -11 -2 -8 -8z"/>
<path d="M2617 1673 c-11 -10 -8 -61 3 -68 6 -3 10 -22 10 -40 0 -24 9 -45 31
-70 17 -19 35 -35 40 -35 5 0 28 17 50 37 l41 38 -36 31 c-20 17 -36 35 -36
41 0 26 -87 83 -103 66z m73 -123 c13 -13 15 -20 7 -20 -14 0 -37 20 -37 32 0
13 9 9 30 -12z"/>
<path d="M6195 1630 c-8 -12 20 -24 35 -15 6 3 8 11 5 16 -8 12 -32 12 -40 -1z"/>
<path d="M6290 1595 c0 -9 5 -15 11 -13 6 2 11 8 11 13 0 5 -5 11 -11 13 -6 2
-11 -4 -11 -13z"/>
<path d="M2414 1565 c-19 -14 -19 -14 3 -15 30 0 54 10 47 21 -8 13 -28 11
-50 -6z"/>
<path d="M6126 1563 c-4 -9 -2 -21 4 -27 7 -7 10 -2 10 17 0 31 -5 34 -14 10z"/>
<path d="M2020 1544 c-13 -33 -13 -94 0 -94 6 0 10 6 10 14 0 24 21 30 27 7 7
-28 38 -27 58 1 8 13 23 23 33 23 23 0 27 38 6 59 -12 12 -20 14 -27 7 -14
-14 -54 -14 -62 -1 -11 19 -35 10 -45 -16z"/>
<path d="M7767 1563 c-11 -10 -8 -43 3 -43 6 0 10 11 10 25 0 26 -2 29 -13 18z"/>
<path d="M6090 1510 c-14 -26 -4 -45 16 -29 16 13 18 35 5 44 -6 3 -15 -4 -21
-15z"/>
<path d="M2805 1490 c-3 -5 -15 -10 -25 -10 -16 0 -18 -5 -13 -33 7 -45 -17
-70 -53 -57 -39 15 -42 13 -64 -37 -19 -42 -21 -61 -17 -148 6 -119 14 -164
34 -186 11 -13 13 -32 7 -80 -3 -35 -10 -68 -14 -74 -4 -5 -13 -35 -20 -65 -7
-30 -17 -65 -23 -77 -5 -12 -6 -33 -1 -50 4 -15 8 -48 8 -73 1 -41 3 -45 31
-50 19 -3 31 -12 33 -25 2 -11 8 -24 13 -30 12 -12 11 -52 -1 -60 -7 -4 -6
-14 2 -28 14 -27 19 -115 7 -123 -5 -3 -9 -19 -9 -36 0 -23 4 -29 15 -24 8 3
26 -6 41 -19 26 -24 26 -26 20 -115 l-8 -90 101 0 101 0 0 25 c0 44 -27 95
-49 95 -12 0 -21 -6 -22 -12 -1 -7 -2 -22 -3 -33 -2 -30 -50 -28 -54 3 -2 13
3 25 12 28 24 9 19 21 -13 32 -36 13 -49 64 -28 114 11 27 11 50 2 123 -11 86
-10 116 4 115 3 -1 21 -9 40 -18 25 -13 39 -31 56 -72 13 -30 28 -55 34 -54
24 2 27 5 45 38 30 56 9 197 -37 243 -15 15 -18 15 -34 -6 -11 -14 -34 -24
-59 -28 -35 -4 -42 -2 -56 18 -34 53 -29 129 9 129 16 0 16 -1 -4 88 -5 19 2
25 40 42 56 25 98 84 76 105 -22 20 -75 26 -89 10 -7 -8 -21 -15 -30 -15 -60
0 -81 47 -76 173 l4 92 38 32 c39 34 58 40 69 22 4 -6 13 -8 21 -5 8 3 28 -9
46 -29 17 -19 36 -35 41 -35 5 0 15 -7 22 -16 17 -24 63 -11 69 19 3 12 7 57
9 100 4 71 2 77 -15 77 -23 0 -73 27 -100 52 -9 10 -24 15 -32 12 -7 -3 -29 4
-47 15 -39 24 -45 25 -54 11z m185 -110 c0 -11 -4 -20 -10 -20 -5 0 -10 9 -10
20 0 11 5 20 10 20 6 0 10 -9 10 -20z m-90 -451 c0 -5 -7 -9 -15 -9 -15 0 -20
12 -9 23 8 8 24 -1 24 -14z"/>
<path d="M6057 1433 c-12 -11 -8 -23 8 -23 8 0 15 7 15 15 0 16 -12 20 -23 8z"/>
<path d="M3191 1346 c-6 -7 -9 -51 -8 -99 2 -67 5 -88 17 -92 11 -3 15 -18 14
-55 -1 -36 2 -50 12 -50 8 0 14 -6 14 -14 0 -7 7 -19 15 -26 8 -7 15 -23 15
-35 0 -60 30 -71 84 -30 40 31 48 31 111 0 74 -36 91 -33 115 19 11 25 20 54
20 66 0 12 7 34 15 50 12 23 23 30 44 30 54 0 130 -23 136 -40 5 -15 44 -40
64 -40 4 0 18 9 31 20 28 24 48 25 78 4 48 -33 59 23 12 66 -18 17 -30 38 -30
54 0 23 -4 26 -35 26 -28 0 -35 4 -35 19 0 10 -6 23 -12 28 -15 12 -141 32
-216 35 -29 1 -58 8 -64 15 -12 15 -74 17 -83 3 -10 -16 -19 -12 -30 13 -6 13
-21 23 -37 25 -25 3 -28 0 -28 -27 0 -28 -3 -31 -29 -31 -30 0 -54 21 -33 28
27 9 11 32 -22 32 -19 0 -37 4 -40 9 -9 13 -83 11 -95 -3z"/>
<path d="M5757 1299 c-13 -8 -17 -18 -13 -34 3 -13 1 -27 -5 -30 -6 -4 -13 2
-16 14 -7 29 -31 26 -77 -9 -22 -17 -50 -30 -62 -30 -13 0 -26 -4 -29 -10 -3
-5 -21 -10 -38 -10 -18 0 -42 -7 -54 -15 -50 -35 -144 -75 -177 -75 -19 0 -47
-5 -63 -11 -15 -6 -58 -12 -94 -13 -66 -3 -89 -10 -89 -25 0 -5 10 -12 23 -16
17 -6 9 -9 -35 -14 -31 -3 -58 -8 -61 -11 -10 -12 -15 -80 -6 -86 6 -3 7 -18
4 -33 -6 -30 15 -58 35 -46 14 9 70 -17 70 -32 0 -7 -7 -13 -15 -13 -8 0 -15
7 -15 15 0 24 -36 17 -54 -10 -17 -26 -21 -61 -8 -69 4 -2 27 -1 52 4 41 7 47
6 73 -20 16 -16 26 -33 22 -39 -14 -24 7 -30 43 -11 41 22 82 26 82 8 0 -6 10
1 23 15 12 15 26 27 30 27 4 0 30 16 57 35 27 19 56 35 63 35 7 0 29 20 50 44
20 25 46 47 57 51 13 4 20 15 20 31 0 21 4 24 19 19 11 -3 28 -2 38 4 10 5 25
12 33 16 65 26 140 125 140 185 0 19 4 42 9 49 6 9 6 22 1 32 -7 12 -5 21 6
30 18 15 15 53 -6 56 -8 2 -23 -2 -33 -8z"/>
<path d="M6506 1293 c-12 -13 -6 -43 14 -63 11 -11 20 -27 20 -36 0 -8 5 -12
10 -9 15 9 12 41 -5 55 -8 7 -15 21 -15 31 0 19 -13 32 -24 22z"/>
<path d="M7801 1272 c-1 -13 6 -30 14 -38 8 -9 15 -27 16 -42 0 -27 0 -27 11
-4 9 17 8 26 -5 40 -9 9 -20 29 -26 42 l-10 25 0 -23z"/>
<path d="M6565 1128 c-9 -23 -2 -83 10 -83 14 0 18 46 6 75 -7 21 -10 22 -16
8z"/>
<path d="M2094 1093 c-34 -33 -36 -39 -32 -84 3 -26 13 -60 23 -75 15 -24 21
-26 62 -20 24 3 49 8 54 12 13 7 11 171 -1 179 -6 4 -24 10 -41 15 -26 8 -34
5 -65 -27z"/>
<path d="M2867 1076 c-7 -19 1 -26 31 -26 24 0 25 1 7 20 -21 24 -31 25 -38 6z"/>
<path d="M6690 1060 c0 -19 3 -21 12 -12 9 9 9 15 0 24 -9 9 -12 7 -12 -12z"/>
<path d="M4854 1057 c-3 -9 -1 -24 4 -33 9 -16 10 -15 17 5 8 27 -11 54 -21
28z"/>
<path d="M4914 1055 c-10 -26 6 -38 27 -19 10 9 16 21 13 25 -8 14 -34 10 -40
-6z"/>
<path d="M4705 1050 c-4 -6 11 -10 39 -10 25 0 48 5 51 10 4 6 -11 10 -39 10
-25 0 -48 -4 -51 -10z"/>
<path d="M3925 1020 c27 -12 35 -12 35 0 0 6 -12 10 -27 9 -25 0 -26 -1 -8 -9z"/>
<path d="M6596 1011 c-8 -12 3 -41 15 -41 12 0 12 37 0 45 -5 3 -12 1 -15 -4z"/>
<path d="M2370 963 c-14 -10 -42 -35 -63 -56 l-39 -37 24 -20 c14 -12 31 -18
43 -14 11 3 34 8 51 11 38 6 94 54 94 81 0 42 -69 64 -110 35z"/>
<path d="M2950 961 c0 -21 23 -45 33 -34 4 3 7 17 7 30 0 16 -6 23 -20 23 -13
0 -20 -7 -20 -19z"/>
<path d="M6501 924 c-15 -53 0 -77 42 -68 18 3 35 8 40 11 25 15 -19 93 -53
93 -13 0 -22 -11 -29 -36z"/>
<path d="M6420 890 c0 -11 5 -20 10 -20 6 0 10 9 10 20 0 11 -4 20 -10 20 -5
0 -10 -9 -10 -20z"/>
<path d="M6130 888 c0 -7 5 -20 10 -28 8 -13 12 -13 27 3 16 15 16 19 3 27
-21 14 -40 12 -40 -2z"/>
<path d="M6840 880 c0 -13 5 -20 13 -17 6 2 12 10 12 17 0 7 -6 15 -12 18 -8
2 -13 -5 -13 -18z"/>
<path d="M4910 856 c0 -13 -7 -29 -15 -36 -16 -14 -21 -50 -6 -50 5 0 17 -7
25 -16 14 -14 16 -14 16 0 0 8 -5 27 -12 41 -10 23 -10 28 5 36 21 12 23 49 2
49 -9 0 -15 -9 -15 -24z"/>
<path d="M6893 834 c-9 -19 -8 -24 2 -24 16 0 29 30 18 41 -4 4 -13 -3 -20
-17z"/>
<path d="M2250 819 c0 -11 5 -17 10 -14 6 3 10 13 10 21 0 8 -4 14 -10 14 -5
0 -10 -9 -10 -21z"/>
<path d="M2065 758 c-38 -50 -85 -125 -85 -135 0 -5 106 -3 140 3 15 3 34 20
49 44 14 22 33 42 42 45 18 6 32 32 24 45 -3 4 -21 11 -40 14 -20 4 -39 14
-42 22 -11 30 -48 15 -88 -38z m56 -93 c0 -5 -9 -11 -21 -13 -20 -3 -27 8 -13
22 10 9 34 3 34 -9z"/>
<path d="M6479 772 c-15 -2 -35 -12 -45 -23 -17 -19 -16 -20 8 -47 14 -15 28
-36 30 -47 2 -13 15 -22 38 -26 49 -11 60 5 28 38 -24 25 -25 30 -12 47 28 39
6 65 -47 58z"/>
<path d="M3293 704 c-8 -21 13 -42 28 -27 13 13 5 43 -11 43 -6 0 -13 -7 -17
-16z"/>
<path d="M2860 690 c-19 -14 -22 -22 -13 -31 13 -13 29 -6 43 21 14 27 -1 32
-30 10z"/>
<path d="M6830 636 c0 -8 4 -17 9 -20 11 -7 33 18 24 27 -12 12 -33 7 -33 -7z"/>
<path d="M3330 565 c0 -8 4 -15 9 -15 5 0 14 7 21 15 10 13 9 15 -9 15 -12 0
-21 -6 -21 -15z"/>
<path d="M2277 530 c-16 -22 -33 -40 -38 -40 -5 0 -27 -11 -49 -25 -22 -14
-46 -25 -54 -25 -21 0 -66 -58 -59 -76 3 -9 16 -20 29 -24 27 -11 23 -34 -11
-62 -23 -20 -127 -24 -171 -7 -40 14 -71 4 -78 -27 -11 -40 17 -74 59 -74 21
0 52 -11 76 -25 61 -39 87 -47 125 -36 29 8 36 6 48 -11 8 -11 19 -17 25 -13
16 9 41 -19 31 -34 -4 -7 -5 -22 -3 -32 5 -16 15 -19 68 -19 l63 0 6 38 c19
106 19 119 -4 142 -16 16 -25 19 -33 11 -17 -17 -30 -13 -24 8 2 10 1 24 -3
31 -9 14 41 94 68 109 15 8 15 14 4 45 -10 26 -10 45 -3 71 5 20 8 42 6 48 -2
7 -6 24 -9 40 -9 39 -36 34 -69 -13z m-67 -135 c0 -8 -7 -15 -15 -15 -10 0
-15 -10 -15 -27 0 -16 -5 -35 -10 -43 -9 -13 -12 -12 -22 5 -14 24 -15 21 20
63 29 35 42 40 42 17z m-30 -230 c0 -8 -4 -17 -10 -20 -6 -4 -10 5 -10 20 0
15 4 24 10 20 6 -3 10 -12 10 -20z"/>
<path d="M5803 552 c-3 -9 -20 -36 -36 -59 -23 -32 -27 -46 -19 -56 7 -8 7
-18 2 -27 -6 -8 -10 -27 -10 -42 0 -15 -5 -39 -12 -54 -10 -22 -10 -28 5 -39
9 -7 17 -23 17 -36 0 -13 4 -30 9 -38 6 -9 5 -24 -2 -38 -8 -18 -16 -23 -32
-19 -37 10 -75 -56 -67 -117 3 -27 27 -38 34 -15 4 10 10 10 32 0 15 -6 51
-12 81 -12 46 0 55 3 55 18 0 10 -5 23 -12 30 -9 9 -8 16 4 29 10 11 17 47 21
95 3 43 9 83 13 90 15 24 3 130 -18 158 -11 15 -22 50 -25 83 -6 57 -28 84
-40 49z"/>
<path d="M4555 470 c-4 -6 -3 -16 3 -22 13 -13 23 4 13 21 -7 10 -10 10 -16 1z"/>
<path d="M6285 220 c-4 -6 -18 -10 -33 -8 -20 2 -27 -3 -35 -25 -5 -16 -7 -30
-4 -33 9 -9 118 47 114 59 -5 16 -33 21 -42 7z"/>
<path d="M6993 163 c-19 -7 -16 -53 2 -53 8 0 15 5 15 10 0 6 11 16 25 22 14
6 25 15 25 20 0 9 -47 10 -67 1z"/>
<path d="M6295 128 c-4 -10 -17 -18 -30 -18 -12 0 -30 -9 -41 -21 -18 -20 -18
-22 -1 -34 9 -7 28 -10 42 -7 30 5 35 -17 5 -25 -37 -10 -20 -23 30 -23 48 0
50 1 40 21 -6 11 -18 23 -26 26 -18 7 -18 33 0 33 24 0 27 17 7 41 -18 22 -20
22 -26 7z"/>
<path d="M1742 51 c-8 -5 -12 -17 -10 -27 2 -15 13 -20 48 -22 35 -2 41 0 28
8 -10 6 -18 17 -18 24 0 8 -7 17 -16 20 -19 7 -16 8 -32 -3z"/>
<path d="M1978 3 c12 -2 32 -2 45 0 12 2 2 4 -23 4 -25 0 -35 -2 -22 -4z"/>
</g>
</svg>
